<svg xmlns="http://www.w3.org/2000/svg" viewBox="0 0 355.32 241.39"><defs><style>.cls-1{fill:#1f0063;}.cls-2{fill:#14a2e0;}</style></defs><title>logo on white</title><g id="Layer_2" data-name="Layer 2"><g id="Layer_1-2" data-name="Layer 1"><path class="cls-1" d="M201.65,5.89h0A25.16,25.16,0,0,0,166.19,9L105.32,81.53,44.45,9l-.26-.29c-.16-.19-.33-.38-.5-.56s-.29-.31-.43-.46l-.4-.41-.55-.53L42,6.45l-.65-.56-.26-.22-.71-.56-.25-.19c-.24-.18-.49-.35-.74-.52l-.27-.18-.72-.47-.34-.2c-.22-.14-.45-.27-.68-.39l-.43-.24-.6-.31-.55-.26-.5-.23-.67-.28-.41-.16-.79-.29-.32-.11L32.23,1,32,.94c-.31-.09-.61-.17-.92-.24L30.79.64l-.93-.2-.29,0L28.68.25l-.37,0L27.5.11,27,.07l-.69,0-.67,0h-.56l-.8,0-.45,0L23,.1l-.4,0-.84.11c-.45.06-.9.14-1.34.22l-.25,0-.87.21-.33.07L18.1,1l-.36.1L17,1.38l-.38.13c-.26.09-.52.2-.77.3L15.42,2l-.81.36-.31.14L13.3,3l-.1,0a24.64,24.64,0,0,0-2.15,1.31h0c-.34.23-.68.48-1,.73l-.16.12c-.28.21-.56.43-.82.66L9,5.89H9a2.09,2.09,0,0,0-.22.2c-.22.18-.44.37-.65.57L7.73,7l-.48.47L6.78,8c-.12.13-.24.25-.35.38s-.35.39-.51.59l-.27.32-.52.66-.22.3-.49.69-.22.31-.44.69-.22.37-.37.64c-.09.16-.17.32-.26.47L2.62,14l-.28.58L2.13,15l-.3.71c-.05.12-.1.25-.14.37-.11.27-.21.54-.3.82a2.47,2.47,0,0,0-.1.29c-.1.3-.19.6-.28.9,0,.08-.05.16-.07.24-.09.31-.17.62-.25.94a1.55,1.55,0,0,1,0,.23c-.07.32-.14.63-.2.95a2.56,2.56,0,0,1,0,.27c0,.3-.1.61-.14.91,0,.12,0,.24,0,.36l-.09.82c0,.17,0,.34,0,.51s0,.46,0,.7,0,.44,0,.67,0,.3,0,.45V216.22a25.17,25.17,0,0,0,25.17,25.17h0a25.17,25.17,0,0,0,25.17-25.17V94.32L86,136.86a25.27,25.27,0,0,0,8.43,6.53h0c.33.16.67.31,1,.46l.18.07.88.35.33.12.75.25.46.14c.22.07.43.13.65.18l.56.15.58.13.63.13.53.1.67.11.53.06.67.08.54,0,.65,0,.58,0h1.24l.57,0,.66,0,.54,0,.67-.08.53-.06.66-.11.54-.1.63-.13.57-.13.57-.15c.21-.05.43-.11.64-.18l.46-.14.75-.25.34-.12.87-.35.19-.07,1-.46h0a25.27,25.27,0,0,0,8.43-6.53l80.14-95.51A25.18,25.18,0,0,0,201.65,5.89Z"/><path class="cls-2" d="M330.15,0H264.53a25.17,25.17,0,0,0-25.17,25.17h0a25.17,25.17,0,0,0,25.17,25.17h65.62a25.17,25.17,0,0,0,25.17-25.17h0A25.17,25.17,0,0,0,330.15,0Z"/><path class="cls-2" d="M330.15,95.53H206.61a25.17,25.17,0,1,0,0,50.33H330.15a25.17,25.17,0,1,0,0-50.33Z"/><rect class="cls-2" x="99.11" y="191.05" width="256.2" height="50.34" rx="25.17" ry="25.17"/></g></g></svg>