<svg xmlns="http://www.w3.org/2000/svg" viewBox="0 0 1294.75 241.39"><defs><style>.cls-1{fill:#1f0063;}.cls-2{fill:#14a2e0;}</style></defs><title>text logo on white</title><g id="Layer_2" data-name="Layer 2"><g id="Layer_1-2" data-name="Layer 1"><path class="cls-1" d="M201.64,5.89h0A25.15,25.15,0,0,0,166.19,9L105.32,81.53,44.45,9c-.09-.1-.18-.19-.26-.29s-.33-.38-.5-.56-.29-.31-.43-.46l-.4-.41-.55-.53L42,6.45l-.65-.56-.26-.22-.71-.56-.25-.18c-.24-.19-.49-.36-.74-.53l-.27-.18-.72-.47-.34-.2c-.22-.14-.45-.27-.68-.39l-.43-.24-.6-.31-.55-.26-.5-.23-.67-.28-.41-.16-.78-.29-.33-.11L32.23,1,32,.94c-.31-.09-.61-.17-.92-.24L30.79.64l-.93-.2-.29,0L28.68.25l-.37,0L27.5.11,27,.07l-.69,0-.67,0h-.56l-.8,0-.45,0L23,.1l-.41,0-.8.11c-.47.06-.93.13-1.39.22l-.24,0-.87.2-.33.08L18.1,1l-.36.1L17,1.38l-.38.13c-.26.09-.52.2-.78.3L15.43,2c-.28.11-.55.24-.82.36l-.31.14L13.3,3l-.1,0a24.64,24.64,0,0,0-2.15,1.31h0c-.34.23-.68.48-1,.73l-.16.12c-.28.21-.56.43-.82.65L9,5.89H9a2.09,2.09,0,0,0-.22.2c-.22.18-.44.37-.65.57L7.73,7l-.48.47L6.78,8c-.12.13-.24.25-.35.38L5.92,9l-.27.32-.52.66-.22.3-.49.69-.22.31-.44.69-.22.37L3.17,13l-.26.46c-.09.19-.19.38-.29.57l-.28.58L2.13,15l-.3.71c-.05.12-.1.25-.14.37-.11.27-.21.54-.3.82a2.47,2.47,0,0,0-.1.29c-.1.3-.19.6-.28.9,0,.08-.05.16-.07.24-.09.31-.17.62-.25.94a1.55,1.55,0,0,1,0,.23c-.07.32-.14.63-.2.95a2.56,2.56,0,0,1,0,.27c0,.3-.1.61-.14.91,0,.12,0,.24,0,.36l-.09.82c0,.17,0,.34,0,.51s0,.46,0,.7,0,.44,0,.67,0,.3,0,.45V216.22a25.17,25.17,0,0,0,25.17,25.17h0a25.17,25.17,0,0,0,25.17-25.17V94.32L86,136.86a25.27,25.27,0,0,0,8.43,6.53h0c.34.16.67.31,1,.45l.2.09c.28.11.57.23.87.33l.34.13.74.25.47.14c.21.07.42.13.64.18l.56.15.57.13.64.13.53.1.67.11.52.06.68.08.54,0,.66,0,.57,0h1.24l.57,0,.66,0,.54,0,.67-.08.52-.06.68-.11.52-.1.64-.13.57-.13.57-.15c.21-.05.43-.11.64-.18l.47-.14.74-.25.34-.13.87-.33.19-.09q.51-.21,1-.45h0a25.27,25.27,0,0,0,8.43-6.53l80.14-95.51A25.17,25.17,0,0,0,201.64,5.89Z"/><path class="cls-2" d="M264.53,50.34h65.62a25.17,25.17,0,1,0,0-50.34H264.53a25.17,25.17,0,1,0,0,50.34Z"/><path class="cls-2" d="M330.15,95.53H206.61a25.16,25.16,0,0,0-25.17,25.16h0a25.17,25.17,0,0,0,25.17,25.17H330.15a25.17,25.17,0,0,0,25.17-25.17h0A25.16,25.16,0,0,0,330.15,95.53Z"/><path class="cls-2" d="M330.15,191.05H124.28a25.17,25.17,0,0,0,0,50.34H330.15a25.17,25.17,0,1,0,0-50.34Z"/><path class="cls-1" d="M464.59,7.53c0-3.8,1.9-5.71,5.71-5.71H481a6.88,6.88,0,0,1,6.73,4.32L512,58.77,536.51,6.14a6.87,6.87,0,0,1,6.72-4.32h10.66c3.8,0,5.71,1.91,5.71,5.71V90c0,3.8-1.91,5.7-5.71,5.7H541.33q-5.72,0-5.71-5.7V57.25l-14.33,34a6.87,6.87,0,0,1-6.72,4.43h-5.08a6.87,6.87,0,0,1-6.72-4.43L488.56,57.38V90q0,5.7-5.7,5.7H470.3q-5.71,0-5.71-5.7Z"/><path class="cls-1" d="M627.21,1.82a6.54,6.54,0,0,1,6.59,4.57l28.92,82.7c1.4,4.06-.25,6.59-4.69,6.59H644.46A6.18,6.18,0,0,1,638,91l-3.93-11.54H606.15L602.22,91a6.42,6.42,0,0,1-6.6,4.69h-13.7c-4.44,0-6.09-2.53-4.69-6.59l29-82.7a6.39,6.39,0,0,1,6.47-4.57Zm1.52,56.83-8.75-26-8,26Z"/><path class="cls-1" d="M753.29,32.64c0,9.26-3.68,18.78-10.65,24.23A12.14,12.14,0,0,1,740,58.65a13.06,13.06,0,0,0-1.52.63l16.49,29.81c2.41,4.06,0,6.59-4.44,6.59h-14c-3.43,0-4.95-1.39-6.6-4.43l-15-29H703.44V90q0,5.7-5.71,5.7H685.18q-5.71,0-5.71-5.7V7.53c0-3.8,1.9-5.71,5.71-5.71h38.56c8.11,0,14.84,2.41,20.29,7.11a28.5,28.5,0,0,1,6.22,8.87A37.32,37.32,0,0,1,753.29,32.64Zm-23.21,0c0-4.43-2.54-7.73-7.61-7.73h-19V40.64h18.14C726,40.64,730.08,37.59,730.08,32.64Z"/><path class="cls-1" d="M799.34,95.68q-5.72,0-5.71-5.7V25.8H774.1c-3.81,0-5.71-1.91-5.71-5.71V7.53c0-3.8,1.9-5.71,5.71-5.71h63c3.81,0,5.71,1.91,5.71,5.71V20.09c0,3.8-1.9,5.71-5.71,5.71H817.6V90q0,5.7-5.71,5.7Z"/><path class="cls-1" d="M881.4,1.82c3.81,0,5.71,1.91,5.71,5.71V90q0,5.7-5.71,5.7H868.85q-5.72,0-5.71-5.7V7.53c0-3.8,1.9-5.71,5.71-5.71Z"/><path class="cls-1" d="M915.65,95.68c-3.8,0-5.71-1.9-5.71-5.7V7.53c0-3.8,1.91-5.71,5.71-5.71h10.91a8.1,8.1,0,0,1,7,3.68L962.83,48V7.53c0-3.8,1.91-5.71,5.71-5.71H981.1c3.81,0,5.71,1.91,5.71,5.71V90q0,5.7-5.71,5.7H970.19a8.12,8.12,0,0,1-7-3.67l-29.3-42.88V90q0,5.7-5.7,5.7Z"/><path class="cls-1" d="M530.42,235.68q0,5.72-5.71,5.71H470.3q-5.71,0-5.71-5.71V153.23q0-5.7,5.71-5.7h54.41q5.71,0,5.71,5.7v12.56q0,5.72-5.71,5.71H488.56v11.8H515.2q5.71,0,5.71,5.7v10.79q0,5.7-5.71,5.7H488.56v11.93h36.15q5.71,0,5.71,5.7Z"/><path class="cls-1" d="M572.9,217.42h33.61c3.8,0,5.71,1.9,5.71,5.7v12.56c0,3.81-1.91,5.71-5.71,5.71H554.63c-3.8,0-5.71-1.9-5.71-5.71V153.23c0-3.8,1.91-5.7,5.71-5.7h12.56c3.8,0,5.71,1.9,5.71,5.7Z"/><path class="cls-1" d="M645.56,147.53q5.72,0,5.71,5.7v82.45q0,5.72-5.71,5.71H633c-3.8,0-5.71-1.9-5.71-5.71V153.23c0-3.8,1.91-5.7,5.71-5.7Z"/><path class="cls-1" d="M676.93,241.39c-3.8,0-5.71-1.9-5.71-5.71v-9.89a9.9,9.9,0,0,1,2.42-7.11l35.13-47.18H678.84q-5.72,0-5.71-5.71V153.23q0-5.7,5.71-5.7h54.41c3.8,0,5.71,1.9,5.71,5.7V163a11.81,11.81,0,0,1-2.29,7.1l-34.12,47.32h32.6q5.72,0,5.71,5.7v12.56q0,5.72-5.71,5.71Z"/><path class="cls-1" d="M768.47,241.39c-3.8,0-5.71-1.9-5.71-5.71V153.23c0-3.8,1.91-5.7,5.71-5.7h35.26c8,0,14.84,2.41,20.3,7.1a28.13,28.13,0,0,1,6.21,7.36,27.46,27.46,0,0,1,3,13.31v.13A21.72,21.72,0,0,1,830.37,186c-1.65,3-3.93,5.2-5.84,5.83a17.47,17.47,0,0,1,8,5.46,24.39,24.39,0,0,1,6.09,14.46,30.54,30.54,0,0,1-2,12.43,28.15,28.15,0,0,1-9,11.92,27.83,27.83,0,0,1-17.12,5.33Zm17.12-72.55v15.72h16.87a9.62,9.62,0,0,0,5.71-1.9,7.07,7.07,0,0,0,2.79-5.58c0-4.19-2.15-8.24-7.23-8.24Zm0,35.13V219.7H806.4c4.56,0,8.24-2.41,8.24-7.87s-3.42-7.86-9-7.86Z"/><path class="cls-1" d="M900,147.53a6.54,6.54,0,0,1,6.59,4.56l28.92,82.7c1.4,4.06-.25,6.6-4.69,6.6H917.26a6.18,6.18,0,0,1-6.47-4.69l-3.93-11.55H879L875,236.7a6.42,6.42,0,0,1-6.6,4.69h-13.7c-4.43,0-6.08-2.54-4.69-6.6l29.05-82.7a6.4,6.4,0,0,1,6.47-4.56Zm1.52,56.82-8.75-26-8,26Z"/><path class="cls-1" d="M1026.09,178.35c0,9.26-3.68,18.77-10.65,24.23a12.41,12.41,0,0,1-2.67,1.77,12.22,12.22,0,0,0-1.52.64l16.49,29.8c2.41,4.06,0,6.6-4.44,6.6h-13.95c-3.43,0-5-1.4-6.6-4.44l-15-29H976.24v27.78q0,5.72-5.71,5.71H958q-5.72,0-5.71-5.71V153.23q0-5.7,5.71-5.7h38.56c8.11,0,14.84,2.41,20.29,7.1a28.56,28.56,0,0,1,6.22,8.88A37.28,37.28,0,0,1,1026.09,178.35Zm-23.21,0c0-4.44-2.54-7.74-7.61-7.74h-19v15.73h18.14C998.82,186.34,1002.88,183.3,1002.88,178.35Z"/><path class="cls-1" d="M1070.61,241.39q-5.7,0-5.7-5.71V197.76l-27-43.38c-2.41-3.94-.89-6.85,3.81-6.85h15.09a7.74,7.74,0,0,1,6.85,3.8l13.19,21.18L1090,151.33a7.74,7.74,0,0,1,6.85-3.8H1112c4.7,0,6.35,2.91,3.81,6.85l-26.89,43.38v37.92q0,5.72-5.71,5.71Z"/><path class="cls-1" d="M1165.62,147.53a6.56,6.56,0,0,1,6.6,4.56l28.92,82.7c1.39,4.06-.26,6.6-4.7,6.6h-13.57a6.18,6.18,0,0,1-6.47-4.69l-3.93-11.55h-27.9l-3.94,11.55a6.41,6.41,0,0,1-6.59,4.69h-13.7c-4.44,0-6.09-2.54-4.69-6.6l29-82.7a6.4,6.4,0,0,1,6.47-4.56Zm1.52,56.82-8.75-26-8,26Z"/><path class="cls-1" d="M1223.59,241.39c-3.8,0-5.71-1.9-5.71-5.71V153.23c0-3.8,1.91-5.7,5.71-5.7h10.91a8.11,8.11,0,0,1,7,3.68l29.3,42.49V153.23q0-5.7,5.7-5.7H1289q5.71,0,5.71,5.7v82.45q0,5.72-5.71,5.71h-10.91a8.11,8.11,0,0,1-7-3.68l-29.3-42.87v40.84c0,3.81-1.91,5.71-5.71,5.71Z"/></g></g></svg>